<svg id="icons" enable-background="new 0 0 64 64" height="48px" viewBox="0 0 64 64" width="48px" class="feature-icon" xmlns="http://www.w3.org/2000/svg">
    <path d="m53 55v4c0 2.2-1.79 4-4 4h-34c-2.2 0-4-1.8-4-4v-4c0 2.2 1.8 4 4 4h23.17 10.83c2.21 0 4-1.8 4-4z" fill="#545c66"/>
    <path d="m49 1h-17-17c-2.2 0-4 1.8-4 4v6 20.99l8 8.01v7c0-1.02.39-2.05 1.18-2.83.67-.67 3.74-2.7 7.04-4.81l-.01-.011c-7.62-2.099-13.21-9.069-13.21-17.349 0-9.94 8.06-18 18-18s18 8.06 18 18c0 9.8-7.83 17.77-17.57 18-2.64 4.17-5.75 8.98-6.6 9.83-.74.74-1.7 1.13-2.67 1.16v.01h7l8.01 8h10.83c2.21 0 4-1.8 4-4v-33-11-6c0-2.2-1.79-4-4-4z" fill="#656d78"/>
    <path d="m23.16 51h7l8.01 8h-23.17c-2.2 0-4-1.8-4-4v-23.01l8 8.01v7c0 1.02.39 2.05 1.18 2.83.82.82 1.9 1.21 2.98 1.16z" fill="#ccd1d9"/>
    <path d="m36.44 33.56c-.12.2-1.91 3.12-4.011 6.44-2.64 4.17-5.75 8.98-6.6 9.83-.74.74-1.7 1.13-2.67 1.16-1.08.05-2.16-.34-2.98-1.16-.789-.78-1.179-1.81-1.179-2.83s.39-2.05 1.18-2.83c.67-.67 3.74-2.7 7.04-4.81 4.29-2.77 8.97-5.65 9.22-5.8z" fill="#e6e9ed"/>
    <path d="m36.44 33.56c-.25.15-4.931 3.03-9.221 5.801l-.01-.011c-7.619-2.1-13.209-9.07-13.209-17.35 0-9.94 8.06-18 18-18s18 8.06 18 18c0 9.8-7.83 17.77-17.57 18 2.1-3.32 3.89-6.24 4.01-6.44zm.56-11.56c0-2.76-2.24-5-5-5s-5 2.24-5 5 2.24 5 5 5 5-2.24 5-5z" fill="#ccd1d9"/>
    <circle cx="32" cy="22" fill="#aab2bd" r="5"/>
    <path d="m49.002 59.999h-34.004c-2.757 0-5-2.243-5-5v-49.998c0-2.757 2.243-5 5-5h34.004c2.757 0 5 2.243 5 5v49.998c0 2.757-2.243 5-5 5zm-34.004-57.998c-1.654 0-3 1.346-3 3v49.998c0 1.654 1.346 3 3 3h34.004c1.654 0 3-1.346 3-3v-49.998c0-1.654-1.346-3-3-3z"/>
    <path d="m49.002 63.999h-34.004c-2.757 0-5-2.243-5-5v-47.996c0-.553.447-1 1-1s1 .447 1 1v47.996c0 1.654 1.346 3 3 3h34.004c1.654 0 3-1.346 3-3v-47.996c0-.553.447-1 1-1s1 .447 1 1v47.996c0 2.757-2.243 5-5 5z"/>
    <path d="m32.424 40.999c-.542 0-.987-.433-1-.977-.013-.553.425-1.011.977-1.023 9.153-.213 16.599-7.837 16.599-16.996 0-9.374-7.626-17-17-17s-17 7.626-17 17c0 7.625 5.128 14.364 12.469 16.39.532.146.846.697.698 1.229-.146.533-.7.845-1.229.698-8.207-2.263-13.938-9.796-13.938-18.317 0-10.477 8.523-19 19-19s19 8.523 19 19c0 10.236-8.323 18.758-18.553 18.996-.008 0-.015 0-.023 0z"/>
    <path d="m32 28.003c-3.309 0-6-2.691-6-6s2.691-6 6-6 6 2.691 6 6-2.691 6-6 6zm0-10c-2.206 0-4 1.794-4 4s1.794 4 4 4 4-1.794 4-4-1.794-4-4-4z"/>
    <path d="m32.029 21.002c-.553 0-1.005-.447-1.005-1s.442-1 .994-1h.011c.552 0 1 .447 1 1s-.448 1-1 1z"/>
    <path d="m32.029 25.002c-.553 0-1.005-.447-1.005-1s.442-1 .994-1h.011c.552 0 1 .447 1 1s-.448 1-1 1z"/>
    <path d="m34.029 23.002c-.553 0-1.005-.447-1.005-1s.442-1 .994-1h.011c.552 0 1 .447 1 1s-.448 1-1 1z"/>
    <path d="m23.028 48.001c-.553 0-1.005-.447-1.005-1s.442-1 .994-1h.011c.552 0 1 .447 1 1s-.448 1-1 1z"/>
    <path d="m15.028 56c-.553 0-1.005-.447-1.005-1s.442-1 .994-1h.011c.552 0 1 .447 1 1s-.448 1-1 1z"/>
    <path d="m30.029 23.002c-.553 0-1.005-.447-1.005-1s.442-1 .994-1h.011c.552 0 1 .447 1 1s-.448 1-1 1z"/>
    <path d="m23.001 52.001c-1.336 0-2.591-.52-3.535-1.464-1.949-1.949-1.949-5.122 0-7.071 1.599-1.599 14.94-9.828 16.456-10.762.393-.242.904-.185 1.231.145.327.327.388.837.145 1.231-.933 1.516-9.162 14.857-10.761 16.457-.944.944-2.2 1.464-3.536 1.464zm10.347-15.347c-5.431 3.393-11.589 7.347-12.468 8.226-1.17 1.17-1.17 3.073 0 4.243 1.133 1.133 3.11 1.133 4.243 0 .879-.879 4.833-7.038 8.225-12.469z"/>
    <path d="m19.001 48.001c-.553 0-1-.447-1-1v-7.002c0-.553.447-1 1-1s1 .447 1 1v7.002c0 .553-.447 1-1 1z"/>
    <path d="m19.001 40.999c-.256 0-.512-.098-.707-.293l-8.003-8.008c-.391-.391-.391-1.024 0-1.414.391-.391 1.023-.391 1.414 0l8.003 8.008c.391.391.391 1.024 0 1.414-.195.195-.451.293-.707.293z"/>
    <path d="m30.16 52h-7.002c-.553 0-1-.447-1-1s.447-1 1-1h7.002c.553 0 1 .447 1 1s-.447 1-1 1z"/>
    <path d="m38.168 60.002c-.256 0-.512-.098-.707-.293l-8.008-8.002c-.391-.39-.391-1.023 0-1.414s1.023-.391 1.414 0l8.008 8.002c.391.39.391 1.023 0 1.414-.195.195-.451.293-.707.293z"/>
</svg>