<?xml version="1.0"?>
<svg version="1.1" width="512" height="512" x="0" y="0" viewBox="0 0 512 512" style="enable-background:new 0 0 512 512" xml:space="preserve" class=""><g>
<circle xmlns="http://www.w3.org/2000/svg" style="" cx="256" cy="256" r="256" fill="#0066aa" data-original="#0066aa"/>
<path xmlns="http://www.w3.org/2000/svg" style="" d="M301.891,507.891c104.033-18.83,186.171-100.525,205.678-204.321L266,62l-2.183,174.58  L150.943,123.706l-32.432,146.047l136.584,136.584L246,452L301.891,507.891z" fill="#40549c" data-original="#1e2d64" class=""/>
<path xmlns="http://www.w3.org/2000/svg" style="" d="M131.5,274L131.5,274c-12.15,0-22-9.85-22-22V134c0-12.15,9.85-22,22-22l0,0c12.15,0,22,9.85,22,22  v118C153.5,264.15,143.65,274,131.5,274z" fill="#91cdff" data-original="#91cdff" class=""/>
<path xmlns="http://www.w3.org/2000/svg" style="" d="M109.852,255.905C111.696,266.191,120.683,274,131.5,274s19.804-7.809,21.648-18.095H109.852z" fill="#1e8ce6" data-original="#1e8ce6" class=""/>
<path xmlns="http://www.w3.org/2000/svg" style="" d="M380.5,400L380.5,400c-12.15,0-22-9.85-22-22V260c0-12.15,9.85-22,22-22l0,0c12.15,0,22,9.85,22,22  v118C402.5,390.15,392.65,400,380.5,400z" fill="#c30032" data-original="#c30032" class=""/>
<path xmlns="http://www.w3.org/2000/svg" style="" d="M358.886,255.905c-0.25,1.328-0.386,2.695-0.386,4.095v118c0,12.15,9.85,22,22,22s22-9.85,22-22V260  c0-1.4-0.136-2.768-0.386-4.095H358.886z" fill="#d7283c" data-original="#d7283c"/>
<circle xmlns="http://www.w3.org/2000/svg" style="" cx="314" cy="291" r="29" fill="#ffffff" data-original="#ffffff"/>
<rect xmlns="http://www.w3.org/2000/svg" x="246" y="62" style="" width="20" height="390" fill="#b9eaff" data-original="#b9eaff"/>
<rect xmlns="http://www.w3.org/2000/svg" x="246" y="255.91" style="" width="20" height="196.09" fill="#91cdff" data-original="#91cdff" class=""/>
<g xmlns="http://www.w3.org/2000/svg">
</g>
<g xmlns="http://www.w3.org/2000/svg">
</g>
<g xmlns="http://www.w3.org/2000/svg">
</g>
<g xmlns="http://www.w3.org/2000/svg">
</g>
<g xmlns="http://www.w3.org/2000/svg">
</g>
<g xmlns="http://www.w3.org/2000/svg">
</g>
<g xmlns="http://www.w3.org/2000/svg">
</g>
<g xmlns="http://www.w3.org/2000/svg">
</g>
<g xmlns="http://www.w3.org/2000/svg">
</g>
<g xmlns="http://www.w3.org/2000/svg">
</g>
<g xmlns="http://www.w3.org/2000/svg">
</g>
<g xmlns="http://www.w3.org/2000/svg">
</g>
<g xmlns="http://www.w3.org/2000/svg">
</g>
<g xmlns="http://www.w3.org/2000/svg">
</g>
<g xmlns="http://www.w3.org/2000/svg">
</g>
</g></svg>
