<?xml version="1.0" encoding="iso-8859-1"?>
<!-- Generator: Adobe Illustrator 19.0.0, SVG Export Plug-In . SVG Version: 6.00 Build 0)  -->
<svg version="1.1" id="Capa_1" xmlns="http://www.w3.org/2000/svg" xmlns:xlink="http://www.w3.org/1999/xlink" 
	 viewBox="0 0 468.293 468.293" 	 xml:space="preserve">
<path style="fill:#27A2DB;" d="M411.839,419.391H56.521c-35.912,0-62.675-32.998-55.29-68.096L58.351,80.47l3.253-15.381
	c2.033-9.417,10.299-16.193,19.92-16.193h305.313c9.621,0,17.888,6.776,19.853,16.193l3.252,15.381l57.119,270.825
	C474.447,386.392,447.683,419.391,411.839,419.391z"/>
<g>
	<polygon style="fill:#2D93BA;" points="127.649,72.797 80.651,337.894 96.091,339.651 143.09,74.553 	"/>
	<polygon style="fill:#2D93BA;" points="340.643,72.797 387.642,337.894 372.202,339.651 325.203,74.553 	"/>
</g>
<g>
	<path style="fill:#E1E6E9;" d="M409.942,80.47H58.351l3.253-15.381c2.033-9.417,10.299-16.193,19.92-16.193h305.313
		c9.621,0,17.888,6.776,19.853,16.193L409.942,80.47z"/>
	<path style="fill:#E1E6E9;" d="M430.463,419.397H37.867c-20.69,0-37.463-16.773-37.463-37.463v-12.489
		c0-20.69,16.773-37.463,37.463-37.463h392.596c20.69,0,37.463,16.773,37.463,37.463v12.489
		C467.926,402.624,451.154,419.397,430.463,419.397z"/>
</g>
<circle style="fill:#E56353;" cx="60.56" cy="375.696" r="20.33"/>
<circle style="fill:#44C4A1;" cx="121.544" cy="375.696" r="15.248"/>
<g>
</g>
<g>
</g>
<g>
</g>
<g>
</g>
<g>
</g>
<g>
</g>
<g>
</g>
<g>
</g>
<g>
</g>
<g>
</g>
<g>
</g>
<g>
</g>
<g>
</g>
<g>
</g>
<g>
</g>
</svg>
